<svg width="18" height="20" fill="none" xmlns="http://www.w3.org/2000/svg"><path d="M14.923 13.755c-.632 0-1.206.229-1.722.573L5.682 10.03c0-.115.057-.23.057-.287 0-.057 0-.23-.057-.287l7.519-4.297c.46.344 1.09.572 1.722.572a2.84 2.84 0 002.87-2.865A2.84 2.84 0 0014.923 0a2.84 2.84 0 00-2.87 2.866c0 .115 0 .172.057.287L4.592 7.452a2.823 2.823 0 00-1.722-.573A2.84 2.84 0 000 9.745a2.84 2.84 0 002.87 2.866c.632 0 1.205-.23 1.722-.573l7.519 4.298c0 .115-.057.172-.057.287a2.84 2.84 0 002.87 2.866 2.84 2.84 0 002.87-2.866 2.843 2.843 0 00-2.871-2.868z" fill="#F90"/></svg>