<svg width="149" height="86" fill="none" xmlns="http://www.w3.org/2000/svg"><path d="M144.788 81.457h.516v1.372h.321v-1.372h.517v-.292h-1.354v.292zm3.067-.292l-.505.79-.505-.79h-.344v1.664h.31v-1.184l.518.801h.032l.517-.8v1.183h.311v-1.664h-.334zM18.07 68.694c-1.134-.24-6.103-1.062-7.102-1.268-1.827-.41-3.24-.821-3.24-2.396 0-2.293 2.754-2.806 5.446-2.806 1.172 0 3.274.136 4.896.924 1.446.72 1.929 1.609 2.136 1.985l5.79-1.438a10.123 10.123 0 00-4.033-3.901c-2.515-1.37-5.24-1.882-8.79-1.882-3.859 0-8.34.855-10.374 4.106a6.589 6.589 0 00-.972 3.424c0 5.468 5.654 6.538 7.894 6.948 1.133.206 6.135.965 7.136 1.164 1.308.24 2.998.643 2.998 2.395 0 2.945-4.654 3.184-6.136 3.184-3.308 0-6.79-.89-8.169-3.8L0 76.77c3.137 6.127 9.308 6.81 13.306 6.81 3.066 0 12.374-.273 12.374-8.04.007-5.308-4.784-6.334-7.61-6.847zm35.122 2.498c.897-1.062 1.655-2.636 1.655-4.964 0-1.848-.486-3.525-1.344-4.757-1.93-2.734-5.273-2.842-7.86-2.842H30.615v24.2h5.993v-9.104h8.514c3.142 0 6.072-.137 8.07-2.533zm-9.07-1.712h-7.514v-6.64h6.86c2.55 0 3.446 0 4.274.718.585.549 1.033 1.37 1.033 2.67.005 3.219-2.683 3.252-4.64 3.252h-.013zm64.505 1.745c1.723-1.3 2.344-3.49 2.344-5.34 0-1.402-.345-3.216-1.586-4.654-2.034-2.327-4.551-2.573-7.307-2.573H85.326v24.171h6.101v-9.72h6.927l6.516 9.72h7.168l-7.376-10.097c.966-.172 2.655-.513 3.965-1.507zm-7.482-2.401h-9.718v-5.915h9.444c2.413 0 2.999.582 3.446 1.163.415.582.486 1.403.486 1.883-.003 2.708-2.346 2.869-3.658 2.869zm40.813-10.16h-7.825l-11.891 10.577V58.664h-6.032V82.83h6.032v-7.256l3.687-3.15 9.548 10.406h8.135l-13.511-13.965 11.857-10.2z" fill="#FCFCFC"/><path d="M78.258 41.036c.873.16 1.505.262 2.613 1.286-2.117-4.237-3.49-6.962-6.608-9.328.972.273 1.91.657 2.794 1.142l-.464-.57c-.835-2.315-2.59-3.833-4.27-5.213 3.953 1.967 2.667 2.82 7.176 4.542 1.4.537 3.937 1.62 5.204 2.251-.332-1.841-3.086-4.482-4.373-5.492 2.915 1.344 6.062 4.576 8.652 8.363-.065-.865.477-2.462-1.806-7.091 4.186 4.408 2.732 6.845 5.304 11.433 1.956-6.447.185-12.215-5.993-14.082 1.236-.09 2.075.322 3.497.783-1.359-1.706-6.242-4.072-9.785-2.758a11.64 11.64 0 012.984-1.18c-4.241-1.054-7.098-.697-10.63 1.02.855-.805 1.733-.82 2.837-1.538a27.324 27.324 0 00-5.518 1.417c3.097-3.445 6.964-6.112 11.225-8.869-1.812-.514-3.8-.14-5.48.575 2.458-1.834 6.783-4.714 10.608-5.986-.81-.322-1.816-.382-3.817.106 2.351-1.342 4.169-2.2 10.516-2.332-2.43-.965-10.001-3.982-15.41.719.675-1.14 1.235-1.77 2.089-3.075-2.736 1.796-5.9 3.792-6.913 7.54-.228-.853-.411-1.466.034-2.896-2.923 3.735-4.802 6.14-5.6 9.953a12.838 12.838 0 01-.174-2.994 28.353 28.353 0 00-.81 1.786c.23-1.663.833-3.529 2.381-5.814-1.093.47-2.163 1.637-3.942 3.61 1.186-1.592 2.355-5.2 2.948-8.041l-2.361 1.193 2.478-1.793c.146-.733.237-1.476.272-2.223-.75.105-1.42.82-2.174.925.912-2.474.972-5.307.39-8.405-2.029 1.77-3.616 6.002-3.548 9.727-.666-.322-1.665-2.983-2.33-3.3-.185.437-.344.885-.475 1.341l1.943 4.624-2.267-2.895c-.149 1.49.075 3.08.854 4.825-.59.466-1.62.132-2.78-.431 1.058 2.726 1.868 4.584 2.533 6.02a36.886 36.886 0 00-2.85-3.143 24.45 24.45 0 011.377 2.998l-.19-.095c-2.522-3.512-5.07-5.257-8.938-7.906 1.086 1.367 1.295 2.124 1.608 3.165-2.754-3.653-5.993-4.404-8.845-5.127 1.296 1.05 2.02 1.473 3.108 2.426-6.26-2.695-9.777 4.082-10.9 6.255 4.4-2.752 6.108-2.647 8.45-2.251-1.636.384-2.29.916-2.663 1.63 3.306-.355 7.83.835 10.508 1.724-1.534-.017-3.093.483-4.049 1.876 2.953.719 5.766 1.48 8.501 2.615.37.347.719.717 1.043 1.106-3.446-1.867-6.507-2.002-11.266-2.2 1.382.589 1.738 1.126 2.242 1.848-3.53-1.668-7.112-.558-10.26.343 1.556.2 2.397.18 3.714.407-7.107 1.056-9.697 8.742-10.528 11.201 4.211-4.709 6.04-5.534 8.599-6.447-1.677 1.201-2.28 2.008-2.553 2.82 3.447-2.067 8.456-3.478 11.457-4.155-1.63.804-3.207 2.07-3.99 3.778 3.214-.952 6.296-1.8 9.354-2.299l-.455.235c1.317-.08 2.028-.58 3.2-.444-3.866.708-6.38 2.107-9.153 5.46.99-.415 2.035-.691 3.103-.82-3.633 1.043-6.14 5.822-6.213 8 .865-1.217 1.296-2.036 2.343-2.695-3.845 5.146-1.814 10.831 3.622 14.855-.682-5.207-3.307-6.3-2.592-12.32.937 5.07 2.331 6.032 2.793 6.756-.193-4.578.398-9.028 1.943-11.836-.43 1.578-1.062 5.328-.223 7.004.648-1.254 2.03-3.626 2.832-4.882 2.592-4.055 1.047-3.971 3.042-7.894-.536 2.18-1.06 4.555-.215 7.014 1.355-4.73 3.58-7.046 5.903-8.547l.324.058a6.27 6.27 0 00-.424.605l.587-.108-.011.023v.01c-.303 7.312.957 17.284 3.461 27.71h-2.591L52.512 82.83h6.651l2.069-4.551 1.964-4.28 5.02-10.065c2.024 7.312 4.622 14.673 7.692 21.354l5.619-1.808c-7.825-13.97-14.22-36.792-16.18-51.11l.128.27a26.76 26.76 0 011.12-2.144c.34-.026.683-.037 1.034-.04 2.969 5.116 3.939 10.785 4.763 17.048 1.252-1.403 1.772-3.349 1.85-5.163.597 2.995 1.34 8.11.842 12.086.633-.575 1.134-1.447 1.555-3.46.202 2.69.193 4.688-2.43 10.425 1.93-1.754 7.944-7.238 6.019-14.109.746 1.099 1.067 1.874 1.885 3.203-.45-3.225-.89-6.911-3.855-9.45z" fill="#FCFCFC"/></svg>