<svg width="15" height="16" fill="none" xmlns="http://www.w3.org/2000/svg"><path d="M12.247 11.191c-.502 0-.958.178-1.368.446l-5.976-3.35c0-.089.046-.178.046-.223 0-.044 0-.178-.046-.223l5.976-3.35a2.37 2.37 0 001.368.447c1.277 0 2.28-.982 2.28-2.233 0-1.25-1.002-2.234-2.28-2.234-1.277 0-2.28.983-2.28 2.234 0 .09 0 .134.044.223l-5.974 3.35a2.272 2.272 0 00-1.368-.446c-1.277 0-2.281.983-2.281 2.234 0 1.25 1.003 2.233 2.28 2.233.503 0 .959-.178 1.37-.446l5.974 3.35c0 .09-.045.133-.045.223 0 1.25 1.003 2.233 2.28 2.233 1.278 0 2.282-.982 2.282-2.233-.001-1.252-1.005-2.235-2.282-2.235z" fill="#fff"/></svg>