<svg width="18" height="20" viewBox="0 0 18 20" fill="none" xmlns="http://www.w3.org/2000/svg">
<path d="M14.9227 13.7549C14.291 13.7549 13.7175 13.9837 13.2009 14.3276L5.68197 10.0295C5.68197 9.91456 5.73901 9.80066 5.73901 9.74262C5.73901 9.68568 5.73901 9.51375 5.68197 9.45572L13.2009 5.15877C13.6604 5.50261 14.291 5.73147 14.9227 5.73147C16.5294 5.73147 17.7928 4.47108 17.7928 2.86574C17.7928 1.2615 16.5305 0 14.9227 0C13.3161 0 12.0527 1.2604 12.0527 2.86574C12.0527 2.98071 12.0527 3.03766 12.1097 3.15264L4.59187 7.4518C4.13235 7.10795 3.55878 6.87909 2.87006 6.87909C1.2634 6.87909 0 8.13949 0 9.74483C0 11.3491 1.2623 12.6106 2.87006 12.6106C3.50175 12.6106 4.07532 12.3817 4.59187 12.0379L12.1108 16.3359C12.1108 16.4509 12.0538 16.5078 12.0538 16.6228C12.0538 18.2271 13.3161 19.4886 14.9238 19.4886C16.5305 19.4886 17.7939 18.2282 17.7939 16.6228C17.7928 15.0164 16.5295 13.7549 14.9227 13.7549Z" fill="#FF9900"/>
</svg>
