<svg width="149" height="86" viewBox="0 0 149 86" fill="none" xmlns="http://www.w3.org/2000/svg">
<path d="M144.788 81.4573H145.304V82.8291H145.625V81.4573H146.142V81.1646H144.788V81.4573Z" fill="#FCFCFC"/>
<path d="M147.855 81.1646L147.35 81.9542L146.845 81.1646H146.501V82.8291H146.811V81.6454L147.329 82.4464H147.361L147.878 81.6454V82.8291H148.189V81.1646H147.855Z" fill="#FCFCFC"/>
<path d="M18.0697 68.6938C16.936 68.4542 11.9671 67.6323 10.9678 67.4264C9.14095 67.0163 7.72866 66.6046 7.72866 65.0301C7.72866 62.7366 10.482 62.2236 13.1737 62.2236C14.3463 62.2236 16.4485 62.3603 18.0697 63.1484C19.516 63.8673 19.9986 64.7567 20.206 65.133L25.996 63.6952C25.0489 62.0431 23.6509 60.6906 21.9632 59.7935C19.448 58.4248 16.7238 57.9117 13.1737 57.9117C9.31424 57.9117 4.83284 58.7674 2.79864 62.0177C2.16633 63.0497 1.83029 64.2338 1.82689 65.4418C1.82689 70.91 7.48087 71.9795 9.72075 72.3897C10.8545 72.5955 15.8557 73.3546 16.8567 73.5541C18.1653 73.7937 19.8545 74.1974 19.8545 75.9488C19.8545 78.8936 15.2014 79.1333 13.7195 79.1333C10.4107 79.1333 6.92859 78.2423 5.55032 75.3328L0 76.7707C3.13714 82.8983 9.30776 83.5818 13.3065 83.5818C16.3724 83.5818 25.6802 83.3084 25.6802 75.5403C25.6866 70.2329 20.8959 69.2068 18.0697 68.6938Z" fill="#FCFCFC"/>
<path d="M53.192 71.1915C54.0893 70.13 54.8472 68.5555 54.8472 66.2283C54.8472 64.3803 54.3614 62.7029 53.503 61.4709C51.5724 58.7368 48.2296 58.629 45.6431 58.629H30.615V82.8291H36.6075V73.7245H45.1216C48.2636 73.7245 51.1935 73.5878 53.192 71.1915ZM44.1223 69.4802H36.6075V62.8396H43.468C46.0189 62.8396 46.9145 62.8396 47.7421 63.5585C48.3268 64.1069 48.7754 64.9271 48.7754 66.2283C48.7803 69.4465 46.0918 69.4802 44.1353 69.4802H44.1223Z" fill="#FCFCFC"/>
<path d="M108.627 71.2252C110.35 69.9257 110.971 67.7352 110.971 65.8857C110.971 64.4832 110.626 62.6691 109.385 61.2312C107.351 58.904 104.834 58.658 102.078 58.658H85.3262V82.8291H91.4272V73.1085H98.3541L104.87 82.8291H112.038L104.662 72.7322C105.628 72.5601 107.317 72.2192 108.627 71.2252ZM101.145 68.824H91.4272V62.9087H100.871C103.284 62.9087 103.87 63.4909 104.317 64.0715C104.732 64.6537 104.803 65.4755 104.803 65.9548C104.8 68.6632 102.457 68.824 101.145 68.824Z" fill="#FCFCFC"/>
<path d="M141.958 58.6644H134.133L122.242 69.2406V58.6644H116.21V82.8292H122.242V75.5725L125.929 72.4235L135.477 82.8292H143.612L130.101 68.8643L141.958 58.6644Z" fill="#FCFCFC"/>
<path d="M78.2584 41.0358C79.1313 41.1966 79.763 41.298 80.8708 42.3224C78.754 38.0846 77.3806 35.3601 74.2628 32.9943C75.2351 33.2674 76.1725 33.6505 77.0566 34.1362L76.5934 33.5652C75.7577 31.2509 74.0021 29.7327 72.3226 28.3527C76.276 30.3197 74.99 31.1721 79.499 32.8946C80.8983 33.4318 83.4362 34.5158 84.7027 35.1462C84.3707 33.3047 81.6174 30.6639 80.3298 29.6539C83.2451 30.9984 86.3919 34.2295 88.9816 38.017C88.9169 37.1518 89.4594 35.5547 87.1758 30.926C91.3624 35.3344 89.908 37.771 92.4799 42.3594C94.4364 35.9118 92.6646 30.1444 86.4875 28.2772C87.7232 28.1871 88.5622 28.5988 89.9842 29.0604C88.6253 27.354 83.7423 24.9882 80.1986 26.3022C81.1336 25.773 82.1382 25.3757 83.1835 25.1217C78.9418 24.0682 76.0849 24.4253 72.5526 26.1413C73.4077 25.3372 74.2855 25.3227 75.3901 24.6038C73.5058 24.8827 71.6563 25.3576 69.8721 26.0207C72.9688 22.5757 76.8364 19.9092 81.0975 17.1525C79.2852 16.6379 77.2963 17.0126 75.6168 17.7267C78.0753 15.8932 82.3996 13.0128 86.2251 11.7406C85.4153 11.4189 84.4095 11.3594 82.4077 11.8467C84.7594 10.5054 86.5766 9.64659 92.9237 9.51471C90.4943 8.54973 82.9228 5.53256 77.5134 10.2336C78.1887 9.09333 78.7491 8.46449 79.6026 7.15855C76.8671 8.95502 73.7025 10.9509 72.6902 14.6983C72.4619 13.8459 72.2789 13.2331 72.7242 11.8033C69.8009 15.5378 67.9222 17.9422 67.1237 21.7555C66.9492 20.7679 66.8911 19.7634 66.9504 18.7624C66.654 19.3591 66.3852 19.9558 66.1406 20.5477C66.3706 18.8847 66.9731 17.019 68.5214 14.7336C67.4282 15.2033 66.3576 16.3709 64.5793 18.3443C65.7649 16.7521 66.9342 13.1446 67.527 10.3028L65.1656 11.4961L67.6436 9.70288C67.7901 8.96978 67.881 8.22681 67.9157 7.48021C67.1658 7.58475 66.4953 8.30044 65.7422 8.40498C66.654 5.93141 66.714 3.09759 66.1325 0C64.1032 1.76913 62.516 6.00218 62.584 9.72701C61.9184 9.40534 60.9191 6.74361 60.2534 6.42677C60.0686 6.86414 59.9101 7.31204 59.7789 7.76809L61.7224 12.392L59.455 9.49702C59.306 10.9863 59.5295 12.5769 60.3085 14.3219C59.719 14.7883 58.6889 14.4538 57.5293 13.8909C58.5869 16.617 59.3967 18.4746 60.0623 19.9108C59.1736 18.8098 58.2219 17.7606 57.2118 16.7681C57.7384 17.7354 58.1984 18.737 58.5885 19.766L58.399 19.6711C55.8773 16.1586 53.3281 14.4136 49.4605 11.7647C50.5472 13.1318 50.7562 13.8893 51.0688 14.9299C48.3155 11.2774 45.0763 10.5263 42.2242 9.8026C43.5199 10.8528 44.2438 11.2758 45.3322 12.2295C39.0725 9.53401 35.5547 16.3114 34.4324 18.4842C38.8312 15.7324 40.5398 15.8369 42.8817 16.2326C41.246 16.617 40.5917 17.1493 40.2191 17.8634C43.5247 17.508 48.0482 18.6981 50.727 19.5875C49.1933 19.5698 47.6336 20.07 46.6781 21.4628C49.6306 22.1817 52.4438 22.9424 55.1793 24.0779C55.5494 24.4251 55.8978 24.7947 56.2223 25.1844C52.7758 23.3171 49.7148 23.1821 44.9564 22.9842C46.3379 23.5729 46.6943 24.11 47.1979 24.8322C43.6672 23.1644 40.0863 24.2741 36.9379 25.1747C38.4943 25.3758 39.3349 25.3549 40.6516 25.5816C33.5448 26.6383 30.9551 34.3244 30.1243 36.7835C34.3352 32.0743 36.1637 31.2493 38.7226 30.3358C37.0464 31.5372 36.4439 32.3445 36.1702 33.1551C39.6167 31.0885 44.626 29.678 47.6271 29.0009C45.9978 29.805 44.4204 31.0708 43.6365 32.7788C46.8514 31.8267 49.9334 30.9791 52.9912 30.4805L52.5361 30.7153C53.8528 30.6349 54.5638 30.1347 55.7364 30.2714C51.8704 30.9791 49.3568 32.3783 46.5825 35.7316C47.5733 35.3158 48.6178 35.0397 49.6856 34.9114C46.0529 35.9536 43.5458 40.7334 43.4729 42.9111C44.3378 41.6936 44.7686 40.875 45.8164 40.2156C41.9715 45.3621 44.0025 51.0475 49.4378 55.0714C48.756 49.8638 46.1306 48.7717 46.8465 42.7519C47.7826 47.8212 49.1771 48.783 49.6387 49.5067C49.4459 44.9295 50.0371 40.4793 51.5822 37.6712C51.1514 39.249 50.5197 42.9995 51.3587 44.6754C52.0065 43.4209 53.3896 41.0487 54.1913 39.7926C56.7827 35.7381 55.2376 35.8217 57.2329 31.899C56.6968 34.0799 56.1737 36.4538 57.0175 38.9128C58.3731 34.1828 60.5984 31.8669 62.9209 30.3663L63.2448 30.4242C63.0915 30.6174 62.9499 30.8193 62.8205 31.029L63.4084 30.9212L63.397 30.9437V30.9534C63.0942 38.2663 64.3542 48.2378 66.8581 58.6644H64.2668L52.5118 82.8291H59.1634L61.2317 78.2776L63.1962 73.9979L68.2169 63.9332C70.2398 71.2445 72.8376 78.6057 75.9083 85.2866L81.5267 83.4789C73.7025 69.5092 67.3067 46.6874 65.347 32.3687L65.475 32.6389C65.8216 31.8926 66.1989 31.1769 66.5941 30.495C66.9342 30.4693 67.2776 30.458 67.629 30.4548C70.5977 35.5708 71.5678 41.2401 72.3922 47.5028C73.6442 46.1003 74.1641 44.1543 74.2418 42.3401C74.8394 45.3348 75.5828 50.4492 75.084 54.4265C75.7172 53.8507 76.2177 52.979 76.6388 50.9655C76.8412 53.6561 76.8315 55.6537 74.2094 61.3905C76.1383 59.6374 82.1535 54.1531 80.2278 47.2824C80.9744 48.3809 81.2951 49.1561 82.113 50.4846C81.6627 47.2599 81.2238 43.5737 78.2584 41.0358Z" fill="#FCFCFC"/>
</svg>
