<svg width="24" height="24" viewBox="0 0 24 24" fill="none" xmlns="http://www.w3.org/2000/svg">
<path d="M11.7843 2.53431C14.3158 2.53431 16.7436 3.54024 18.533 5.32975C20.3224 7.11925 21.3284 9.54698 21.3284 12.0784C21.3284 14.6099 20.3225 17.0377 18.533 18.8271C16.7435 20.6165 14.3158 21.6225 11.7843 21.6225C9.25288 21.6225 6.82509 20.6166 5.03565 18.8271C3.24622 17.0376 2.24021 14.6099 2.24021 12.0784C2.24382 9.5486 3.25066 7.12289 5.04028 5.33438C6.8289 3.54485 9.25473 2.53801 11.7843 2.53431ZM11.7843 0.509796C8.71586 0.509796 5.77327 1.72901 3.60415 3.89825C1.43503 6.06748 0.215698 9.01019 0.215698 12.0784C0.215698 15.1467 1.43492 18.0895 3.60415 20.2586C5.77338 22.4277 8.71609 23.6471 11.7843 23.6471C14.8526 23.6471 17.7954 22.4278 19.9645 20.2586C22.1336 18.0894 23.353 15.1467 23.353 12.0784C23.353 9.01019 22.1337 6.06736 19.9645 3.89825C17.7953 1.72913 14.8526 0.509796 11.7843 0.509796V0.509796Z" fill="#FF9900"/>
<path d="M15.4718 12.3966L9.8754 15.6214C9.76333 15.6829 9.62686 15.6802 9.51749 15.6151C9.40722 15.55 9.34034 15.4307 9.34034 15.3033V8.83919C9.33673 8.70724 9.40632 8.58341 9.5202 8.51655C9.63498 8.45057 9.77688 8.45238 9.88986 8.52106L15.4863 11.7603C15.602 11.8263 15.6716 11.9501 15.6689 12.0829C15.6662 12.2158 15.5902 12.336 15.4718 12.3966L15.4718 12.3966Z" fill="#FF9900"/>
</svg>
