<svg width="15" height="16" viewBox="0 0 15 16" fill="none" xmlns="http://www.w3.org/2000/svg">
<path d="M12.247 11.191C11.745 11.191 11.2892 11.3694 10.8787 11.6374L4.90339 8.28773C4.90339 8.19813 4.94871 8.10936 4.94871 8.06414C4.94871 8.01975 4.94871 7.88577 4.90339 7.84054L10.8787 4.49175C11.2439 4.75972 11.745 4.93808 12.247 4.93808C13.5238 4.93808 14.5278 3.95581 14.5278 2.7047C14.5278 1.45445 13.5247 0.471313 12.247 0.471313C10.9702 0.471313 9.96617 1.45359 9.96617 2.7047C9.96617 2.7943 9.96617 2.83868 10.0115 2.92829L4.03708 6.2788C3.67191 6.01083 3.21609 5.83247 2.66876 5.83247C1.39196 5.83247 0.387939 6.81474 0.387939 8.06585C0.387939 9.3161 1.39108 10.2992 2.66876 10.2992C3.17077 10.2992 3.62659 10.1209 4.03708 9.8529L10.0124 13.2025C10.0124 13.2922 9.96704 13.3365 9.96704 13.4261C9.96704 14.6764 10.9702 15.6595 12.2479 15.6595C13.5247 15.6595 14.5287 14.6773 14.5287 13.4261C14.5278 12.1742 13.5238 11.191 12.247 11.191Z" fill="white"/>
</svg>
