<svg width="15" height="15" viewBox="0 0 15 15" fill="none" xmlns="http://www.w3.org/2000/svg">
<path d="M7.5 0C5.51088 0 3.60348 0.790283 2.19719 2.19719C0.790283 3.60339 0 5.51088 0 7.5C0 9.48912 0.790283 11.3965 2.19719 12.8028C3.60339 14.2097 5.51088 15 7.5 15C9.48912 15 11.3965 14.2097 12.8028 12.8028C14.2097 11.3966 15 9.48912 15 7.5C14.9972 5.5116 14.2069 3.60546 12.8006 2.19935C11.3944 0.793235 9.4884 0.00287991 7.5 0ZM10.1648 9.67055L7.16467 8.17084C6.91084 8.04358 6.74984 7.78414 6.74984 7.50007V3.75043C6.74984 3.3363 7.08592 3.00022 7.50005 3.00022C7.91419 3.00022 8.25027 3.3363 8.25027 3.75043V7.03677L10.8355 8.32977V8.32907C11.2061 8.51468 11.3558 8.96467 11.1709 9.3352C10.9853 9.70574 10.5353 9.8562 10.1648 9.67058L10.1648 9.67055Z" fill="#FF9900"/>
</svg>
